<svg xmlns="http://www.w3.org/2000/svg" viewBox="0 0 512 512">
  <!-- Background Circle with gradient -->
  <defs>
    <linearGradient id="bgGradient" x1="0%" y1="0%" x2="100%" y2="100%">
      <stop offset="0%" style="stop-color:#EF4444" />
      <stop offset="100%" style="stop-color:#DC2626" />
    </linearGradient>

    <!-- Soft glow effect -->
    <filter id="glow">
      <feGaussianBlur stdDeviation="3" result="blur" />
      <feComposite in="blur" in2="SourceGraphic" operator="over" />
    </filter>

    <!-- Inner glow -->
    <filter id="innerGlow">
      <feGaussianBlur stdDeviation="2" result="blur" />
      <feComposite in="blur" in2="SourceGraphic" operator="atop" />
    </filter>
  </defs>

  <!-- Main Circle -->
  <circle cx="256" cy="256" r="248" fill="url(#bgGradient)" />

  <!-- Decorative Ring -->
  <path d="M256 16c132.5 0 240 107.5 240 240s-107.5 240-240 240S16 388.5 16 256 123.5 16 256 16"
        fill="none" stroke="#FCA5A5" stroke-width="8" stroke-dasharray="16,8" />

  <!-- HVAR Letters -->
  <text x="256" y="200" text-anchor="middle" font-family="Arial, sans-serif" font-size="80" font-weight="bold" fill="white">H</text>
  <text x="256" y="280" text-anchor="middle" font-family="Arial, sans-serif" font-size="80" font-weight="bold" fill="white">V</text>
  <text x="256" y="360" text-anchor="middle" font-family="Arial, sans-serif" font-size="80" font-weight="bold" fill="white">AR</text>

  <!-- Technology Circuit Lines -->
  <path d="M120 120 L200 120 M312 120 L392 120" stroke="white" stroke-width="3" opacity="0.6" />
  <path d="M120 392 L200 392 M312 392 L392 392" stroke="white" stroke-width="3" opacity="0.6" />
  <path d="M120 120 L120 200 M392 120 L392 200" stroke="white" stroke-width="3" opacity="0.6" />
  <path d="M120 312 L120 392 M392 312 L392 392" stroke="white" stroke-width="3" opacity="0.6" />

  <!-- Connection Dots -->
  <circle cx="200" cy="120" r="4" fill="white" opacity="0.8" />
  <circle cx="312" cy="120" r="4" fill="white" opacity="0.8" />
  <circle cx="200" cy="392" r="4" fill="white" opacity="0.8" />
  <circle cx="312" cy="392" r="4" fill="white" opacity="0.8" />
  <circle cx="120" cy="200" r="4" fill="white" opacity="0.8" />
  <circle cx="392" cy="200" r="4" fill="white" opacity="0.8" />
  <circle cx="120" cy="312" r="4" fill="white" opacity="0.8" />
  <circle cx="392" cy="312" r="4" fill="white" opacity="0.8" />
</svg>
