<svg xmlns="http://www.w3.org/2000/svg" viewBox="0 0 300 100" fill="currentColor" role="img" aria-label="Wilson Egypt">
  <!-- Replace the path below with your new Wilson logo SVG content -->
  <path d="m249.941 5.902 3.621.035 3.63.028L260 6a536 536 0 0 1 17 32l.076-2.83q.143-5.18.296-10.36.065-2.244.125-4.49.088-3.22.187-6.441l.11-3.92C278 7 278 7 279 6h9v52h-13c-2.868-3.564-4.256-5.928-6-10a545 545 0 0 0-3.21-6.008 2203 2203 0 0 1-3.165-6.117l-1.652-3.187A3912 3912 0 0 1 257 25l.016 2.922q.026 5.348.039 10.695.008 2.317.02 4.636c.013 2.216.018 4.433.023 6.65l.015 2.105c0 1.664-.051 3.329-.113 4.992-1 1-1 1-3.031 1.133l-2.469-.008-2.469.008C247 58 247 58 246 57a76 76 0 0 1-.13-4.687l-.009-3.024.006-3.289-.003-3.352q0-3.515.006-7.03c.005-3.602 0-7.204-.007-10.806q0-3.405.004-6.812l-.006-3.29.01-3.023.002-2.675c.206-3.258.748-3 4.068-3.11m-20.554 2.77c5.472 4.505 8.104 10.292 8.818 17.356.098 2.141.124 4.266.107 6.41l-.014 2.274C238.12 43.058 236.073 49.065 230 55c-6.93 3.941-14.456 4.884-22.187 3.063C202.29 56.135 199.033 52.944 196 48c-4.366-9.277-4.346-20.13-1.04-29.742 2.317-5.032 5.42-8.211 10.04-11.195 7.471-2.663 17.533-2.56 24.387 1.609M207 20c-2.928 7.187-3.284 15.277-.75 22.625 2.392 3.262 2.392 3.262 5.75 5.375 4.82.612 6.834.786 10.875-1.937 4.446-6.408 4.513-13.027 3.602-20.606-.764-3.937-2.022-6.366-5.227-8.77-5.896-1.801-10.033-1.266-14.25 3.313M188 9c-.507 3.719-1.116 6.735-3 10l-3.062-1c-3.701-1.063-7.08-1.231-10.938-1-1.233 1.047-1.233 1.047-1.45 3.316.181 2.96.181 2.96 3.118 4.711q1.75.975 3.52 1.91C185.61 32.4 185.61 32.4 188 37c.842 5.648.759 10.336-1.625 15.563-4.59 4.71-9.304 6.01-15.7 6.515-4.235-.124-10.537-.94-13.675-4.078a110 110 0 0 1-.062-5.562l.027-3.067L157 44l1.652.656C164.165 46.692 169.113 47.683 175 47c1.232-1.046 1.232-1.046 1.453-3.312-.186-2.971-.186-2.971-3.156-4.75A131 131 0 0 0 169.75 37c-5.197-2.81-9.043-5.587-11.75-11-.524-5.256-.62-9.665 1.625-14.5C167.372 3.345 178.463 4.598 188 9m-64-3q2.469-.04 4.938-.062l2.777-.036C134 6 134 6 135 7c.159 1.76.251 3.527.316 5.293l.128 3.332.119 3.563.128 3.577c.276 8.082.441 16.148.309 24.235l3.176-.105q2.068-.043 4.137-.083l2.091-.076c5.094-.073 5.094-.073 7.56 1.584 1.583 2.567 1.286 4.739 1.036 7.68l-1 2h-29c-.745-5.213-1.147-10.025-1.133-15.242l-.003-2.327q0-2.422.006-4.846.005-3.669-.007-7.339 0-2.37.004-4.738l-.006-2.18c.023-5.171.503-10.194 1.139-15.328M36 6h16l1.469 3.156c3.872 8.29 7.81 16.531 12.004 24.664C68.5 39.765 68.5 39.765 69 43a90 90 0 0 1-3.437 7.75l-1.026 2.113A572 572 0 0 1 62 58h-3a53229 53229 0 0 1-9.284-19.638 7004 7004 0 0 1-6.692-14.19 1499 1499 0 0 0-2.918-6.143l-1.66-3.517L37 11.475C36 9 36 9 36 6M7 6h16a1512 1512 0 0 1 10 19l1.177 2.275a387 387 0 0 1 3.01 6.038c.572 1.15 1.143 2.302 1.731 3.488 1.65 4.876.701 7.79-1.328 12.41l-1.653 3.164c-.547 1.06-1.095 2.12-1.66 3.21L33 58c-3-1-3-1-4.483-3.55l-1.556-3.407-.856-1.852c-.92-1.997-1.825-4-2.73-6.004q-.939-2.051-1.881-4.102-2.332-5.092-4.638-10.195a3099 3099 0 0 0-3.778-8.296C7 7.219 7 7.219 7 6m98.25-.133 2.75.008 2.75-.008C113 6 113 6 114 7c.098 1.56.128 3.124.13 4.688l.009 3.023-.006 3.289.003 3.352q0 3.515-.006 7.03-.005 5.403.007 10.805 0 3.407-.004 6.813l.006 3.29-.01 3.023-.002 2.675C114 57 114 57 113 58c-1.664.098-3.333.13-5 .125l-2.75.008C103 58 103 58 102 57a76 76 0 0 1-.13-4.687l-.009-3.024.006-3.289-.003-3.352q0-3.515.006-7.03.005-5.403-.007-10.806 0-3.405.004-6.812l-.006-3.29.01-3.023.002-2.675c.182-2.877.496-2.975 3.377-3.145M63 6h24c-4.5 11.25-4.5 11.25-7.25 16.625l-1.578 3.102L77 28h-3l-.121-2.852c-.384-7.317-.384-7.317-4.016-13.343-2.441-1.581-2.441-1.581-4.965-2.79L63 8zm94 62h16v4h-12v4h11v4h-11v5h12v4q-3.72.04-7.437.063l-2.143.025c-1.807.009-3.614-.036-5.42-.088-1-1-1-1-1.114-2.95l.016-2.523.01-2.724.025-2.865.014-2.877q.02-3.531.049-7.061m116 0h15v4h-11v4h10v4h-10v5h11l1 2-1 2c-3.16.414-3.16.414-7.062.625l-3.91.227L274 90c-2.618-7.855-2.175-13.774-1-22m-87 0c2.438 1.25 2.438 1.25 4 3v4l-4-1v-2c-2.97.342-2.97.342-6 1l-1 2 1.863.332 2.45.48 2.425.458c2.56.826 3.684 1.561 5.262 3.73-.125 3.563-.125 3.563-1 7-3.674 2.45-6.732 2.83-11 2-3-2.312-3-2.312-5-5v-3h4l2 3c3.084.25 3.084.25 6 0v-2l-2.152-.664c-2.757-.951-5.293-1.927-7.848-3.336-1.375-3-1.375-3-1-6 2.864-4.535 5.907-4.637 11-4m12 0c2.262-.023 2.262-.023 5 1 1.715 2.612 2.732 5.454 3.813 8.375.31.781.622 1.562.943 2.367C210 85.503 210 85.503 210 89h-4l-2-5h-7l-2 5h-4c.73-4.688 2.366-8.909 4.063-13.312l.853-2.245Q196.954 70.72 198 68m2 6-1 5h3l-1-5zm60.16-6.098 3.902.035 3.91.028L271 68v4l-10 1-1 3h9v4h-9l.563 3.375C261 87 261 87 260 89h-4c-.029-3.312-.047-6.625-.062-9.937l-.026-2.866-.01-2.724-.016-2.524c.194-3.317.877-2.942 4.274-3.047M207 68h5l4 7 1.875-2.375C220 70 220 70 222 68h4c-1.083 3.248-2.437 5.615-4.562 8.25-3 3.996-3.316 7.859-3.438 12.75l-4-1-.125-3.937c-.52-5.061-2.59-8.203-5.598-12.215C207 70 207 70 207 68m27 0h4v17h9v4h-13c-.836-7.243-1.018-13.781 0-21m15 0h4v21h-4z"/>
</svg>
