<svg xmlns="http://www.w3.org/2000/svg" viewBox="0 0 1209.501 589.404" height="589.404" width="1209.501" xml:space="preserve">
  <defs>
    <clipPath id="a" clipPathUnits="userSpaceOnUse">
      <path d="M0 442.053h907.126V0H0Z"/>
    </clipPath>
  </defs>
  <g clip-path="url(#a)" transform="matrix(1.33333 0 0 -1.33333 0 589.404)">
    <path style="fill:#fff;fill-opacity:1;fill-rule:nonzero;stroke:none" d="m0 0-17.357 12.823 6.888-30.624zm361.132 87.741c.046 13.618-8.951 23.167-21.911 23.256-13.446.092-23.416-9.612-23.506-22.879-.086-12.757 9.267-22.165 22.223-22.357 13.471-.199 23.15 8.973 23.194 21.98M-15.384 57.959l-1.073 3.309c-13.507 0-27.014.068-40.518-.109-1.292-.017-2.564-1.567-3.845-2.405 1.036-1.172 1.896-3.083 3.142-3.38 4.206-1.003 6.54-2.982 6.664-7.601.039-1.45 1.505-3.213 2.796-4.221 8.451-6.596 17.033-13.024 26.214-19.994l-6.593 28.989zM3.247 2.26l9.993-7.357c14.389 22.11 24.772 45.462 41.157 66.441-10.445 0-19.688.112-28.923-.11-1.555-.037-3.075-1.52-4.611-2.335 1.434-1.26 2.723-2.771 4.344-3.708 1.593-.921 3.524-1.259 5.971-2.074zm146.172-56.521c-.555 2.167-.66 3.824-1.042 3.89-10.875 1.883-9.663 11.212-11.444 18.55-1.352 5.576-2.139 11.286-3.274 16.918-4.491 22.283-8.924 44.58-13.646 66.815-.669 3.149-2.04 7.435-4.418 8.696-7.332 3.889-17.334-.024-21.281-7.376C77.527 21.96 60.876-9.386 43.829-40.515c-1.793-3.275-5.924-5.246-8.869-7.933-1.551-1.416-2.881-3.072-4.93-5.29 18.426-2.391 30.94-1.33 34.814 3.468L51.41-46.841c5.087 9.762 9.786 19.066 14.841 28.173.763 1.375 3.172 2.566 4.843 2.596 11.53.21 23.071.263 34.593-.113 1.739-.057 4.537-2.359 4.901-4.042 1.886-8.727 3.142-17.59 4.555-26.031-3.359-3.973-11.65.516-11.891-8.003zm48.134 7.109 7.417 41.208c7.685 1.836 13.05 1.418 14.593-7.776.933-5.564 3.724-10.839 5.846-16.178 3.215-8.09 4.446-19.425 10.453-23.284 6.442-4.139 17.435-1.233 26.442-1.377 1.251-.02 2.657-.233 3.713.249 1.165.531 2.01 1.76 4.093 3.718-3.741.949-6.366 1.341-8.76 2.304-2.152.866-5.141 1.897-5.888 3.65-5.744 13.466-11.032 27.126-16.378 40.519 5.322 2.81 10.283 4.759 14.479 7.77 11.528 8.272 15.559 19.86 13.151 33.618-2.297 13.123-11.97 19.586-23.726 20.586-20.694 1.761-41.559 1.573-62.356 2.001-1.139.024-2.316-1.774-3.476-2.723 1.149-1.037 2.167-2.718 3.472-2.98 3.089-.621 6.314-.567 9.352-.777.32-1.551.7-2.308.582-2.978-5.44-30.749-10.966-61.484-16.35-92.243-.753-4.301-2.416-6.517-7.215-6.757-2.839-.142-5.583-2.202-8.369-3.4l.937-2.674c16.024 0 32.049-.078 48.07.136 1.416.019 2.806 1.945 4.207 2.985-1.245.983-2.358 2.489-3.763 2.842-3.11.783-6.366.988-10.526 1.561M-82.993 69.035c-9.515 7.876-17.391 14.422-25.295 20.934-22.827 18.804-45.252 38.128-68.627 56.228-19.835 15.36-41.968 13.286-58.561-5.606-26.95-30.682-53.314-61.897-79.22-93.464-15.07-18.363-11.894-43.891 6.342-59.197a83909 83909 0 0 1 182.222-152.522c22.597-18.858 46.702-17.203 66.368 4.876 15.497 17.4 30.32 35.399 45.34 53.219C-3.605-93.66 7.325-80.9 17.699-67.709c13.392 17.028 10.778 42.583-5.484 56.382-1.079-1.709-2.201-3.342-3.176-5.058-7.168-12.626-14.524-25.154-21.355-37.96-2.97-5.567-7.777-5.661-12.174-4.373-2.886.845-6.444 4.163-7.13 6.994-6.124 25.273-11.35 50.765-17.574 76.013C-51.334 32.967-50.7 43-59.304 49.38c-5.805 4.304-11.138 9.241-15.938 13.271-4.084-1.061-7.33-2.3-10.673-2.676-4.743-.533-6.966-2.74-7.76-7.481-4.375-26.149-8.763-52.301-13.652-78.358-1.292-6.888.592-9.676 7.372-10.407 1.7-.183 3.145-2.717 4.707-4.17-1.67-1.731-3.303-4.924-5.014-4.966-15.804-.391-31.623-.32-47.433-.109-1.512.02-4.392 2.221-4.245 2.849.516 2.195 1.623 4.82 3.373 6.002 1.915 1.294 4.911.865 7.216 1.754 1.894.731 4.669 2.032 4.994 3.526 2.731 12.584 4.989 25.27 7.689 39.512-12.798 0-24.013.193-35.207-.218-1.596-.058-4.098-2.849-4.455-4.705-1.983-10.306-3.424-20.715-5.07-31.085-.698-4.399.524-7.194 5.508-7.792 2.941-.353 7.039.22 6.575-5.021-.45-5.082-4.082-4.915-7.686-4.911-13.806.013-27.618-.154-41.415.215-2.641.071-5.226 2.262-7.836 3.476 2.384 1.989 4.578 5.337 7.189 5.7 6.63.922 9.305 4.099 10.27 10.522 1.859 12.359 4.571 24.588 6.722 36.907 2.699 15.446 5.189 30.928 7.829 46.754-2.879.696-5.3.763-7.103 1.85-2.153 1.298-3.778 3.469-5.631 5.262 2.25 1.285 4.445 3.547 6.761 3.679 8.007.457 16.056.172 24.089.171h25.137c1.03-6.858-2.106-8.376-7.028-9.256-3.086-.551-7.92-2.347-8.429-4.442-2.805-11.539-4.518-23.342-6.749-35.861 12.109 0 23.109-.276 34.068.262 1.902.093 4.753 3.381 5.249 5.616 1.947 8.781 3.009 17.753 4.641 26.61.843 4.572-.54 6.824-5.239 8.038-2.496.644-4.46 3.339-6.664 5.108 2.738 1.343 5.443 3.761 8.22 3.846 13.244.409 26.508.183 41.929.183" transform="translate(435.131 231.628)"/>
    <path style="fill:#d31e25;fill-opacity:1;fill-rule:nonzero;stroke:none" d="M0 0c-15.421 0-28.685.225-41.929-.183-2.777-.085-5.482-2.503-8.221-3.847 2.205-1.769 4.169-4.463 6.665-5.108 4.699-1.213 6.081-3.465 5.239-8.038-1.632-8.856-2.695-17.828-4.641-26.609-.496-2.235-3.347-5.523-5.249-5.616-10.959-.538-21.959-.263-34.068-.263 2.231 12.52 3.944 24.323 6.748 35.862.509 2.095 5.344 3.89 8.43 4.442 4.922.88 8.058 2.398 7.028 9.256h-25.137c-8.033.001-16.082.286-24.089-.171-2.317-.133-4.511-2.394-6.761-3.679 1.853-1.793 3.478-3.964 5.631-5.262 1.803-1.087 4.223-1.155 7.103-1.85-2.64-15.826-5.131-31.308-7.829-46.755-2.152-12.318-4.864-24.547-6.722-36.906-.965-6.423-3.64-9.6-10.27-10.522-2.611-.364-4.806-3.712-7.19-5.701 2.611-1.213 5.195-3.405 7.837-3.475 13.797-.369 27.608-.202 41.415-.215 3.604-.004 7.235-.171 7.686 4.911.464 5.241-3.634 4.668-6.576 5.021-4.983.598-6.206 3.393-5.508 7.791 1.646 10.371 3.087 20.78 5.071 31.085.357 1.857 2.859 4.647 4.455 4.706 11.193.411 22.409.217 35.207.217-2.701-14.241-4.958-26.928-7.69-39.512-.324-1.493-3.099-2.794-4.994-3.525-2.304-.889-5.3-.46-7.215-1.754-1.75-1.182-2.857-3.808-3.373-6.002-.148-.629 2.733-2.83 4.244-2.85 15.811-.21 31.63-.281 47.434.109 1.711.043 3.344 3.235 5.014 4.967-1.562 1.453-3.008 3.986-4.707 4.17-6.78.731-8.664 3.519-7.372 10.407 4.889 26.056 9.276 52.208 13.652 78.358.794 4.741 3.017 6.948 7.76 7.481 3.343.376 6.589 1.615 10.673 2.675 4.8-4.029 10.133-8.967 15.938-13.271 8.603-6.379 7.97-16.413 10.109-25.091 6.225-25.247 11.451-50.739 17.575-76.013.686-2.831 4.243-6.148 7.13-6.994 4.397-1.287 9.203-1.193 12.173 4.374 6.832 12.806 14.187 25.334 21.356 37.96.974 1.716 2.097 3.348 3.175 5.058 16.263-13.799 18.877-39.354 5.485-56.383-10.374-13.191-21.304-25.951-32.123-38.787-15.02-17.82-29.844-35.819-45.34-53.219-19.666-22.08-43.771-23.735-66.368-4.877A84198 84198 0 0 0-225.361-81.105c-18.236 15.306-21.412 40.834-6.342 59.197 25.906 31.567 52.27 62.781 79.219 93.464 16.594 18.891 38.727 20.965 58.562 5.606 23.375-18.1 45.8-37.424 68.627-56.229C-17.391 14.422-9.515 7.876 0 0" transform="translate(352.139 300.663)"/>
    <path style="fill:#231f20;fill-opacity:1;fill-rule:nonzero;stroke:none" d="M0 0c6.426.897 11.65 1.209 16.663 2.403 15.591 3.715 23.997 18.82 19.325 34.196-3.181 10.471-15.013 16.685-25.227 13.003-1.276-.46-2.62-2.345-2.875-3.759C5.224 31.119 2.778 16.356 0 0m-8.953-49.073c4.16-.573 7.416-.777 10.526-1.561 1.405-.353 2.518-1.859 3.763-2.842-1.401-1.04-2.791-2.966-4.207-2.985-16.021-.214-32.046-.135-48.07-.135l-.937 2.673c2.787 1.198 5.53 3.259 8.37 3.4 4.798.24 6.461 2.456 7.214 6.757 5.384 30.759 10.911 61.494 16.35 92.243.118.67-.262 1.428-.582 2.979-3.038.209-6.263.155-9.352.776-1.305.262-2.323 1.943-3.471 2.98 1.159.95 2.336 2.747 3.475 2.723 20.798-.428 41.662-.24 62.356-2.001 11.756-1 21.43-7.462 23.727-20.586C62.616 21.59 58.585 10.003 47.057 1.73c-4.196-3.011-9.156-4.96-14.479-7.769 5.347-13.394 10.634-27.054 16.378-40.52.748-1.753 3.736-2.784 5.888-3.65 2.394-.963 5.02-1.355 8.76-2.304-2.083-1.958-2.928-3.187-4.092-3.718-1.057-.482-2.463-.269-3.714-.249-9.007.144-20-2.762-26.442 1.377-6.007 3.859-7.238 15.194-10.453 23.284-2.122 5.339-4.912 10.614-5.846 16.178-1.542 9.194-6.908 9.612-14.593 7.776z" transform="translate(641.637 233.549)"/>
    <path style="fill:#231f20;fill-opacity:1;fill-rule:nonzero;stroke:none" d="m0 0-1.725.153-25.779-48.86H8.628zm49.757-95.679H3.59c.241 8.518 8.532 4.03 11.891 8.003-1.413 8.441-2.668 17.304-4.555 26.031-.364 1.682-3.162 3.985-4.901 4.042-11.522.375-23.063.323-34.593.113-1.67-.03-4.08-1.222-4.843-2.597-5.055-9.107-9.754-18.41-14.841-28.172l13.434-3.429c-3.874-4.798-16.388-5.859-34.814-3.468 2.049 2.218 3.379 3.874 4.93 5.289 2.945 2.688 7.076 4.659 8.869 7.934 17.048 31.129 33.698 62.475 50.485 93.746 3.947 7.353 13.949 11.265 21.281 7.376 2.378-1.26 3.749-5.547 4.418-8.695 4.722-22.235 9.155-44.532 13.646-66.816 1.135-5.631 1.922-11.342 3.274-16.918 1.781-7.337.569-16.666 11.444-18.549.382-.067.487-1.724 1.042-3.89" transform="translate(534.793 273.046)"/>
    <path style="fill:#231f20;fill-opacity:1;fill-rule:nonzero;stroke:none" d="m0 0 27.931 50.856c-2.447.815-4.378 1.153-5.97 2.074-1.622.938-2.911 2.449-4.345 3.709 1.536.815 3.056 2.297 4.612 2.334 9.234.223 18.477.11 28.922.11-16.385-20.978-26.768-44.33-41.157-66.44z" transform="translate(438.378 233.889)"/>
    <path style="fill:#231f20;fill-opacity:1;fill-rule:nonzero;stroke:none" d="m0 0-13.214-5.412 6.594-28.989c-9.181 6.97-17.763 13.398-26.214 19.994-1.292 1.008-2.757 2.771-2.796 4.221-.125 4.619-2.458 6.598-6.664 7.601-1.246.298-2.106 2.208-3.143 3.38 1.282.838 2.554 2.388 3.846 2.405 13.504.177 27.011.109 40.518.109z" transform="translate(419.748 289.587)"/>
    <path style="fill:#231f20;fill-opacity:1;fill-rule:nonzero;stroke:none" d="M0 0c-11.155.031-19.297-7.671-19.451-18.399-.147-10.26 8.839-19.289 19.087-19.18 10.778.115 18.488 7.778 18.601 18.486C18.36-7.389 11.332-.031 0 0m22.24-18.944c-.044-13.008-9.722-22.18-23.193-21.98-12.957.191-22.309 9.6-22.223 22.356C-23.087-5.3-13.117 4.404.329 4.312c12.96-.089 21.957-9.638 21.911-23.256" transform="translate(774.023 338.313)"/>
    <path style="fill:#231f20;fill-opacity:1;fill-rule:nonzero;stroke:none" d="m0 0-10.469-17.801-6.888 30.624z" transform="translate(435.131 231.628)"/>
    <path style="fill:#fff;fill-opacity:1;fill-rule:nonzero;stroke:none" d="M0 0c2.778 16.356 5.224 31.119 7.886 45.843.255 1.414 1.599 3.299 2.875 3.759 10.214 3.682 22.046-2.532 25.227-13.003C40.66 21.223 32.254 6.118 16.663 2.403 11.65 1.209 6.426.897 0 0" transform="translate(641.637 233.549)"/>
    <path style="fill:#fff;fill-opacity:1;fill-rule:nonzero;stroke:none" d="m0 0 8.628-48.707h-36.132L-1.725.153z" transform="translate(534.793 273.046)"/>
    <path style="fill:#fff;fill-opacity:1;fill-rule:nonzero;stroke:none" d="M0 0c-1.13 4.295-1.956 6.737-2.376 9.246-.349 2.088-.844 4.469-.195 6.349 2.587 7.496.628 10.548-7.004 11.15-5.661.447-7.696-1.637-7.193-7.222.538-5.956.53-11.961.76-17.944l1.492.56 4.522 9.651zm-8.968 32.591C2.364 32.56 9.391 25.202 9.269 13.499 9.156 2.791 1.446-4.872-9.332-4.988c-10.248-.109-19.234 8.92-19.087 19.18.154 10.728 8.296 18.43 19.451 18.399" transform="translate(782.991 305.722)"/>
    <path style="fill:#231f20;fill-opacity:1;fill-rule:nonzero;stroke:none" d="M0 0c-7.396 2.546-4.173-9.661-3.169-9.498C2.937-8.507 10.146-3.492 0 0m8.481-21.982C4.038-16.741-.67-14.389-3.445-11.115c-1.508-3.217-.528-7.57-2.035-10.787l-1.491-.56c-.231 5.983-.223 11.988-.76 17.944C-8.235 1.066-6.2 3.15-.539 2.704 7.094 2.102 14.64-6.434-.4-10.24c-1.928-.488 10.715-6.756 8.881-11.742" transform="translate(773.955 329.763)"/>
    <path style="fill:#fff;fill-opacity:1;fill-rule:nonzero;stroke:none" d="M0 0c-1.011-.113-.85 8.734.559 8.777C2.266 8.828 1.992.222 0 0" transform="translate(773.396 320.987)"/>
  </g>
</svg>
